<svg fill="none" xmlns="http://www.w3.org/2000/svg" viewBox="0 0 214 100"><g clip-path="url(#a)"><path d="M66.578 28.571H49.933a21.386 21.386 0 0 0-15.132 6.277A21.443 21.443 0 0 0 28.533 50a21.444 21.444 0 0 0 6.268 15.152 21.386 21.386 0 0 0 15.132 6.277h18.618a2.78 2.78 0 0 0 2.782-2.786v-49.19A19.47 19.47 0 0 1 75.37 7.605 19.425 19.425 0 0 1 85.776.674c4.138-1.1 8.522-.8 12.471.852a19.435 19.435 0 0 1 9.371 8.284L128.4 46.214V19.452a19.473 19.473 0 0 1 4.035-11.846A19.427 19.427 0 0 1 142.843.674c4.137-1.1 8.521-.8 12.471.852a19.434 19.434 0 0 1 9.371 8.284l20.782 36.404V0h11.889l2.377 2.381L202.111 0H214v80.548a19.474 19.474 0 0 1-4.035 11.846 19.428 19.428 0 0 1-10.408 6.932c-4.137 1.1-8.521.8-12.471-.852a19.435 19.435 0 0 1-9.371-8.284l-20.782-36.404v26.762a19.467 19.467 0 0 1-4.035 11.846 19.428 19.428 0 0 1-10.408 6.932c-4.137 1.1-8.521.8-12.471-.852a19.44 19.44 0 0 1-9.371-8.284L99.867 53.786v26.762c0 5.159-2.047 10.106-5.69 13.754A19.413 19.413 0 0 1 80.44 100H49.933a49.9 49.9 0 0 1-35.308-14.645A50.034 50.034 0 0 1 0 50c0-13.26 5.26-25.979 14.625-35.355A49.9 49.9 0 0 1 49.933 0h16.645v11.905l-2.378 2.38 2.378 2.382V28.57Z" fill="#000"/><path d="M66.578 14.286H49.933a35.643 35.643 0 0 0-25.22 10.46A35.739 35.739 0 0 0 14.267 50a35.739 35.739 0 0 0 10.446 25.254 35.643 35.643 0 0 0 25.22 10.46H80.44a5.154 5.154 0 0 0 4.767-3.19c.26-.626.393-1.298.393-1.976V19.452a5.17 5.17 0 0 1 3.83-4.983 5.153 5.153 0 0 1 5.8 2.412l37.807 66.238a5.159 5.159 0 0 0 5.799 2.412 5.163 5.163 0 0 0 3.831-4.983V19.452a5.169 5.169 0 0 1 3.83-4.983 5.161 5.161 0 0 1 5.8 2.412l37.806 66.238a5.161 5.161 0 0 0 5.8 2.412 5.163 5.163 0 0 0 3.83-4.983V0" stroke="#000" stroke-width="20"/></g><defs><clipPath id="a"><path fill="#fff" d="M0 0h214v100H0z"/></clipPath></defs></svg>