<svg fill="none" xmlns="http://www.w3.org/2000/svg" viewBox="0 0 536 100"><g clip-path="url(#a)"><mask id="b" style="mask-type:luminance" maskUnits="userSpaceOnUse" x="0" y="0" width="536" height="100"><path d="M536 0H0v100h536V0Z" fill="#fff"/></mask><g mask="url(#b)"><mask id="c" style="mask-type:luminance" maskUnits="userSpaceOnUse" x="-2" y="-2" width="102" height="102"><path d="M99.964-1.905H-1.904V100H99.964V-1.905Z" fill="#fff"/></mask><g mask="url(#c)"><path d="M99.964.218H.218V100h99.746V.218Z" fill="#000" stroke="#fff" stroke-width=".094"/><path d="m36.96 21.985 12.07 25.153 12.069-25.153h10.38L53.27 56.21v22.023h-8.478V56.21L26.58 21.985h10.38Z" fill="#fff"/></g><path d="M158.684 71.905h-10.71V53.6h-15.815v18.304h-10.71V30.359h10.71v15.206h15.815V30.36h10.71v41.546Zm29.036-8.175V57.2c-1.358.112-2.827.27-4.407.475-1.581.186-2.78.41-3.598.67-1.004.316-1.776.78-2.315 1.395-.521.595-.781 1.385-.781 2.371 0 .651.055 1.181.167 1.59.112.41.391.8.837 1.172.428.373.939.652 1.534.837.595.168 1.524.252 2.789.252 1.004 0 2.018-.205 3.04-.614a9.483 9.483 0 0 0 2.734-1.618Zm0 4.854c-.539.41-1.209.903-2.008 1.48-.8.576-1.553 1.032-2.26 1.367-.985.446-2.008.771-3.068.976-1.06.223-2.222.335-3.486.335-2.976 0-5.467-.921-7.475-2.763-2.009-1.84-3.013-4.194-3.013-7.059 0-2.288.512-4.157 1.535-5.608 1.022-1.45 2.473-2.595 4.35-3.432 1.86-.837 4.166-1.432 6.917-1.786 2.753-.353 5.607-.614 8.564-.78v-.168c0-1.73-.707-2.92-2.12-3.572-1.413-.67-3.496-1.004-6.248-1.004-1.655 0-3.422.298-5.299.893-1.879.576-3.227 1.023-4.045 1.339h-.92V41.24c1.06-.28 2.78-.605 5.16-.977a44.694 44.694 0 0 1 7.196-.586c5.708 0 9.827.884 12.356 2.65 2.548 1.75 3.821 4.502 3.821 8.26v21.317h-9.957v-3.32Zm35.506 4.158c-2.733 0-5.234-.326-7.503-.977-2.25-.65-4.212-1.656-5.885-3.013-1.655-1.358-2.938-3.07-3.849-5.134-.911-2.065-1.367-4.483-1.367-7.255 0-2.92.484-5.44 1.45-7.561.986-2.12 2.353-3.878 4.101-5.273 1.692-1.321 3.644-2.288 5.857-2.902a25.654 25.654 0 0 1 6.889-.92c2.139 0 4.11.232 5.913.697a27.913 27.913 0 0 1 5.049 1.813v8.566h-1.423c-.39-.335-.864-.725-1.422-1.172-.539-.446-1.209-.883-2.008-1.311a12.612 12.612 0 0 0-2.511-1.005c-.911-.279-1.971-.418-3.179-.418-2.678 0-4.742.855-6.192 2.567-1.432 1.693-2.148 3.999-2.148 6.92 0 3.013.734 5.3 2.203 6.863 1.488 1.563 3.589 2.344 6.304 2.344 1.265 0 2.399-.14 3.403-.419 1.022-.297 1.869-.641 2.538-1.032.632-.372 1.19-.762 1.673-1.172.484-.409.93-.809 1.339-1.2h1.423v8.566a26.678 26.678 0 0 1-4.965 1.758c-1.711.447-3.608.67-5.69.67Zm50.568-.837h-11.687l-8.786-13.644-2.733 3.32v10.324h-10.041V28.49h10.041v25.92l10.822-13.839h11.575l-11.268 13.505 12.077 17.829Zm35.925-13.812h-22.983c.149 2.456 1.078 4.335 2.789 5.636 1.73 1.302 4.268 1.954 7.615 1.954 2.119 0 4.174-.382 6.164-1.144 1.989-.763 3.561-1.581 4.713-2.456h1.116v8.064c-2.268.912-4.407 1.572-6.415 1.981-2.008.41-4.23.614-6.666.614-6.285 0-11.101-1.414-14.448-4.241-3.347-2.828-5.021-6.855-5.021-12.082 0-5.17 1.581-9.263 4.742-12.276 3.18-3.032 7.53-4.549 13.053-4.549 5.095 0 8.926 1.293 11.492 3.879 2.566 2.567 3.849 6.268 3.849 11.105v3.515Zm-9.986-5.887c-.055-2.102-.576-3.683-1.561-4.743-.986-1.06-2.52-1.59-4.603-1.59-1.934 0-3.524.502-4.769 1.506-1.246 1.004-1.943 2.613-2.092 4.827h13.025Zm39.774-2.065h-.892c-.428-.149-1.116-.26-2.064-.334a31.349 31.349 0 0 0-2.371-.112c-1.432 0-2.696.093-3.793.279-1.097.186-2.278.502-3.543.949v20.982h-10.041V40.57h10.041v4.604c2.213-1.897 4.138-3.153 5.774-3.767 1.637-.632 3.143-.949 4.518-.949.354 0 .753.01 1.2.028.446.019.837.047 1.171.084v9.57Zm63.538 21.764h-10.32l-17.628-28.516v28.516h-9.818V30.359h12.803l15.145 23.8v-23.8h9.818v41.546Zm40.89-13.812h-22.984c.149 2.456 1.079 4.335 2.79 5.636 1.729 1.302 4.267 1.954 7.614 1.954 2.12 0 4.175-.382 6.164-1.144 1.99-.763 3.561-1.581 4.714-2.456h1.116v8.064c-2.269.912-4.407 1.572-6.415 1.981-2.009.41-4.231.614-6.666.614-6.285 0-11.102-1.414-14.449-4.241-3.347-2.828-5.02-6.855-5.02-12.082 0-5.17 1.581-9.263 4.741-12.276 3.18-3.032 7.532-4.549 13.054-4.549 5.095 0 8.925 1.293 11.491 3.879 2.566 2.567 3.85 6.268 3.85 11.105v3.515Zm-9.986-5.887c-.056-2.102-.576-3.683-1.562-4.743-.985-1.06-2.519-1.59-4.602-1.59-1.934 0-3.523.502-4.77 1.506-1.245 1.004-1.943 2.613-2.091 4.827h13.025Zm67.025-11.635-9.706 31.334H480.61l-6.385-21.122-6.276 21.122h-10.794l-9.623-31.334h10.544l5.355 21.596 6.694-21.596h8.895l6.36 21.596 5.274-21.596h10.32Zm33.217 21.4c0 3.238-1.447 5.85-4.351 7.84-2.899 1.973-6.869 2.958-11.91 2.958-2.789 0-5.317-.26-7.583-.78-2.27-.521-4.094-1.098-5.469-1.73v-8.26h.918c.505.354 1.081.745 1.733 1.172.667.41 1.609.856 2.818 1.34 1.038.428 2.218.8 3.542 1.116 1.318.297 2.732.446 4.236.446 1.971 0 3.432-.213 4.38-.642.947-.446 1.423-1.097 1.423-1.952 0-.763-.281-1.312-.838-1.647-.557-.353-1.618-.688-3.18-1.004-.742-.168-1.756-.344-3.037-.53a35.06 35.06 0 0 1-3.46-.726c-2.847-.744-4.956-1.897-6.331-3.46-1.376-1.58-2.066-3.543-2.066-5.887 0-3.013 1.423-5.515 4.27-7.506 2.861-2.008 6.769-3.013 11.715-3.013 2.342 0 4.584.242 6.721.725 2.156.466 3.841.968 5.046 1.507v7.924h-.862c-1.49-1.023-3.189-1.85-5.103-2.483a17.685 17.685 0 0 0-5.774-.976c-1.618 0-2.985.223-4.103.67-1.095.446-1.642 1.078-1.642 1.896 0 .744.247 1.312.752 1.702.499.39 1.68.782 3.541 1.172 1.024.205 2.119.41 3.29.614 1.19.186 2.38.428 3.57.726 2.642.688 4.593 1.776 5.86 3.264 1.266 1.47 1.894 3.311 1.894 5.525Z" fill="#000"/></g></g><defs><clipPath id="a"><path fill="#fff" d="M0 0h536v100H0z"/></clipPath></defs></svg>