<svg fill="none" xmlns="http://www.w3.org/2000/svg" viewBox="0 0 342 100"><g clip-path="url(#a)" fill="#000"><path d="M37.04 16.045v27.339H11.917V16.045H0v65.262h11.922V54.855h25.114v26.452h11.925V16.044H37.039Zm50.08 44.168a9.862 9.862 0 0 1-9.865 9.863 9.865 9.865 0 0 1-9.865-9.863V32.258H56.081v27.955A21.147 21.147 0 0 0 77.234 81.36a21.154 21.154 0 0 0 21.152-21.148V32.258H87.12v27.955Zm83.793-25.074c0-5.733 3.791-7.549 7.943-7.549 3.349 0 7.77 2.549 10.664 5.639l7.404-8.729c-3.697-5-11.195-8.455-17.335-8.455-12.27 0-21.143 7.184-21.143 19.094 0 22.096 27.012 15.084 27.012 27.451 0 3.813-3.704 7.181-7.944 7.181-6.688 0-8.856-3.268-11.928-6.726l-8.221 8.545c5.259 6.452 11.744 9.73 19.51 9.73 11.657 0 21.033-7.272 21.033-18.64 0-24.528-27.014-16.906-27.014-27.541M338.022 70.88c-6.682 0-8.582-2.89-8.582-7.316V43.968h10.389v-9.93H329.44v-13.1l-11.467 5.146V66c0 10.21 7.046 15.355 16.706 15.355a23.604 23.604 0 0 0 4.524-.362L342 70.697c-1.262.087-2.71.174-3.978.174M130.166 32.584c-5.601 0-9.511 1.626-13.292 5.332v-21.48h-11.325v39.816c0 14.903 10.776 25.116 22.888 25.116 13.435 0 25.253-10.394 25.253-24.387 0-13.82-10.876-24.387-23.524-24.387m-.07 37.377a12.855 12.855 0 0 1-12.853-12.85 12.858 12.858 0 0 1 7.934-11.872 12.855 12.855 0 0 1 17.771 11.872 12.85 12.85 0 0 1-12.852 12.85Zm123.061-13.584c0-14.02-11.792-24.387-25.253-24.387-12.108 0-22.888 10.21-22.888 25.116v39.839h11.325v-21.51c3.775 3.7 7.692 5.332 13.286 5.332 12.648 0 23.53-10.567 23.53-24.39Zm-10.724-.142a12.853 12.853 0 0 1-25.705 0 12.85 12.85 0 0 1 12.852-12.85 12.853 12.853 0 0 1 12.853 12.85Z"/><path d="M289.751 31.452V20.074a8.766 8.766 0 0 0 5.053-7.897v-.26a8.762 8.762 0 0 0-8.763-8.762h-.261a8.761 8.761 0 0 0-8.763 8.761v.261a8.763 8.763 0 0 0 5.052 7.897v11.378a24.818 24.818 0 0 0-11.799 5.193l-31.209-24.303a9.755 9.755 0 0 0 .352-2.458 9.868 9.868 0 0 0-6.078-9.132 9.875 9.875 0 0 0-13.475 7.172 9.875 9.875 0 0 0 4.184 10.14 9.871 9.871 0 0 0 5.483 1.671 9.766 9.766 0 0 0 4.862-1.322l30.732 23.91a24.88 24.88 0 0 0 .381 28.032l-9.347 9.348a8.036 8.036 0 0 0-2.336-.38 8.108 8.108 0 1 0 8.114 8.113 7.984 7.984 0 0 0-.38-2.336l9.246-9.248a24.944 24.944 0 0 0 21.516 4.365 24.936 24.936 0 0 0 16.627-14.334 24.918 24.918 0 0 0-1.152-21.92 24.924 24.924 0 0 0-18.039-12.511Zm-3.833 37.419a12.79 12.79 0 1 1 0-25.571 12.792 12.792 0 0 1 8.762 21.66 12.794 12.794 0 0 1-8.749 3.905"/></g><defs><clipPath id="a"><path fill="#fff" d="M0 0h342v100H0z"/></clipPath></defs></svg>