<svg fill="none" xmlns="http://www.w3.org/2000/svg" viewBox="0 0 618 100"><g clip-path="url(#a)"><path d="M100.036 0H0v100h100.036V0Z" fill="#000"/><path d="M32.551 28.413H22.548v43.333H32.55V28.413ZM52.559 28.413H42.555v43.333h10.004V28.413Z" fill="#fff"/><path d="M69.231 45.08h-18.42v10h18.42v-10Z" fill="#fff"/><path d="M77.488 28.413H67.484v43.333h10.004V28.413Z" fill="#fff"/><path d="M154.659 73.175V27.936h10.162v45.239h-10.162ZM175.619 73.175V27.936h10.48l11.75 22.54 4.446 10h.318c-.159-2.38-.477-5.08-.794-8.095-.318-3.016-.477-5.714-.477-8.413V27.936h9.686v45.239h-10.48l-11.909-22.54-4.446-9.841h-.317c.159 2.54.476 5.238.794 8.095.317 2.857.476 5.714.476 8.254v16.032h-9.527ZM221.667 73.175V27.936h12.862c3.493 0 6.669.477 9.368 1.27 2.7.953 5.081 2.223 7.146 4.127 1.905 1.905 3.493 4.127 4.604 6.984 1.112 2.858 1.588 6.19 1.588 10 0 3.81-.476 7.302-1.588 10.16-1.111 2.856-2.54 5.237-4.446 7.142a16.383 16.383 0 0 1-6.986 4.127c-2.7.952-5.717 1.429-9.051 1.429h-13.497Zm10.321-8.254h1.906a18.14 18.14 0 0 0 5.24-.794c1.587-.476 2.858-1.27 3.969-2.381 1.112-1.111 1.906-2.698 2.541-4.444.635-1.905.953-4.127.953-6.826 0-2.698-.318-4.92-.953-6.825-.635-1.905-1.429-3.334-2.541-4.445-1.111-1.11-2.382-1.904-3.969-2.38-1.588-.477-3.335-.636-5.24-.636h-1.906v28.73ZM265.81 73.175V27.936h10.162v45.239H265.81ZM286.77 73.175V27.936h28.264v8.572h-18.102v9.047h15.403v8.572h-15.403v10.476h18.737v8.572H286.77ZM338.534 73.175V27.936h10.163v17.46h15.561v-17.46h10.321v45.239h-10.321v-18.89h-15.561v18.89h-10.163ZM379.66 73.175l14.132-45.239h12.227l14.132 45.239h-10.797l-2.7-10.794H392.84l-2.7 10.794h-10.48Zm16.355-22.858-1.111 4.127h9.686l-1.112-4.127a157.573 157.573 0 0 1-1.905-7.301c-.635-2.54-1.27-5.08-1.747-7.302h-.317c-.477 2.381-1.112 4.92-1.747 7.302-.476 2.54-1.111 4.92-1.747 7.301ZM443.334 73.968c-2.858 0-5.557-.476-8.098-1.428-2.541-.953-4.764-2.381-6.669-4.445-1.906-1.904-3.493-4.285-4.605-7.301-1.112-2.857-1.747-6.19-1.747-10 0-3.81.635-7.143 1.747-10s2.699-5.397 4.605-7.46c1.905-2.064 4.128-3.652 6.828-4.604 2.54-1.111 5.398-1.587 8.257-1.587 2.858 0 5.557.635 7.78 1.746s4.287 2.54 5.717 4.127l-5.399 6.666c-1.112-1.11-2.382-1.904-3.652-2.54-1.271-.634-2.7-.952-4.288-.952-1.587 0-3.017.318-4.287.953-1.429.635-2.54 1.587-3.493 2.857-.953 1.27-1.747 2.698-2.382 4.603-.635 1.746-.953 3.81-.953 6.032 0 4.603.953 8.254 3.017 10.794 1.906 2.54 4.605 3.81 7.94 3.81a9.858 9.858 0 0 0 4.922-1.27c1.429-.794 2.699-1.906 3.811-3.017l5.399 6.35c-3.652 4.444-8.575 6.666-14.45 6.666ZM464.77 73.175V27.936h10.163v18.572h.317l13.497-18.572h11.274l-13.656 18.096 16.197 27.143h-11.115L480.49 54.127l-5.24 6.984v12.064h-10.48ZM507.484 73.175V27.936h28.264v8.572h-18.101v9.047h15.402v8.572h-15.402v10.476h18.736v8.572h-28.899ZM545.434 73.175V27.936h16.355c2.382 0 4.605.16 6.828.635 2.064.477 3.97 1.27 5.558 2.381 1.588 1.111 2.858 2.54 3.811 4.286.952 1.746 1.429 4.127 1.429 6.667 0 3.333-.794 6.032-2.223 8.254-1.429 2.222-3.335 3.81-5.875 4.762l10.321 18.095h-11.592l-8.733-16.35h-5.558v16.35h-10.321v.159Zm10.163-24.445h5.24c2.699 0 4.763-.476 6.192-1.746 1.429-1.111 2.064-2.857 2.064-5.08 0-2.222-.635-3.809-2.064-4.602-1.429-.953-3.493-1.27-6.192-1.27h-5.24V48.73ZM600.851 73.968a25.06 25.06 0 0 1-8.892-1.587c-2.858-1.111-5.558-2.698-7.939-4.92l5.875-6.985c1.588 1.429 3.334 2.54 5.398 3.334 1.906.952 3.97 1.27 5.876 1.27 2.064 0 3.652-.477 4.763-1.112 1.112-.793 1.588-1.905 1.588-3.174 0-.635-.159-1.27-.476-1.746-.318-.477-.794-.953-1.271-1.429-.476-.476-1.27-.794-2.064-1.111-.794-.318-1.746-.794-2.699-1.111l-5.875-2.54c-1.112-.476-2.223-1.111-3.335-1.746-1.111-.793-2.064-1.587-2.858-2.54-.794-.952-1.588-2.222-2.064-3.492a13.013 13.013 0 0 1-.794-4.444c0-1.905.476-3.65 1.111-5.238.794-1.587 1.906-3.016 3.335-4.286 1.429-1.27 3.176-2.222 5.081-2.857 1.905-.635 4.129-1.111 6.51-1.111 2.7 0 5.24.476 7.781 1.587 2.54.953 4.763 2.54 6.828 4.445l-5.24 6.349c-1.429-1.111-3.017-2.064-4.446-2.699-1.429-.635-3.176-.952-4.923-.952-1.746 0-3.175.318-4.128 1.111-.953.794-1.588 1.746-1.588 3.016 0 .635.159 1.27.476 1.746.318.476.794.952 1.429 1.27.636.476 1.43.794 2.223 1.111.794.317 1.747.794 2.7 1.111l5.875 2.381c2.699 1.111 4.922 2.699 6.51 4.603C617.206 54.127 618 56.825 618 60c0 1.905-.318 3.65-1.111 5.397-.794 1.746-1.906 3.174-3.335 4.444s-3.176 2.223-5.399 3.016c-2.223.794-4.605 1.111-7.304 1.111Z" fill="#000"/></g><defs><clipPath id="a"><path fill="#fff" d="M0 0h618v100H0z"/></clipPath></defs></svg>