<svg fill="none" xmlns="http://www.w3.org/2000/svg" viewBox="0 0 646 100"><g clip-path="url(#a)" fill="#000"><path d="M97.521 50.525c0 26.846-21.618 48.61-48.286 48.61-26.668 0-48.284-21.758-48.284-48.61 0-26.853 21.618-48.609 48.284-48.609 26.667 0 48.286 21.763 48.286 48.609ZM150.492 50.525c0 25.272-10.81 45.757-24.143 45.757s-24.143-20.492-24.143-45.757c0-25.266 10.81-45.758 24.143-45.758s24.143 20.492 24.143 45.758ZM172.157 50.525c0 22.642-3.802 40.996-8.491 40.996s-8.492-18.36-8.492-40.996c0-22.636 3.803-40.997 8.493-40.997 4.691 0 8.49 18.356 8.49 40.997ZM305.419 6.131l.134-.03v-1.04h-27.46l-25.497 59.918L227.099 5.06h-29.592V6.1l.133.03c5.012 1.131 7.557 2.818 7.557 8.902v71.221c0 6.084-2.555 7.77-7.567 8.902l-.133.03v1.043h20.077v-1.04l-.133-.03c-5.012-1.131-7.557-2.818-7.557-8.902V19.164l32.755 77.066h1.857l33.709-79.215v71.001c-.43 4.805-2.952 6.289-7.49 7.313l-.134.032v1.032h34.972v-1.032l-.134-.032c-4.544-1.024-7.126-2.508-7.556-7.313l-.023-72.983h.023c0-6.084 2.545-7.77 7.556-8.902Zm15.974 47.18c.572-12.796 5.168-22.032 12.881-22.191 2.379.039 4.374.82 5.925 2.321 3.296 3.198 4.845 9.882 4.606 19.87h-23.412Zm-.346 3.607h40.99v-.172c-.116-9.785-2.951-17.397-8.418-22.623-4.725-4.516-11.721-7.002-19.07-7.002h-.164c-3.813 0-8.491.925-11.819 2.6-3.79 1.754-7.131 4.377-9.912 7.82-4.476 5.546-7.188 13.041-7.847 21.464-.021.252-.039.505-.057.757a46.893 46.893 0 0 0-.092 2.077c-.017.728-.021 1.461-.008 2.199.444 19.077 10.751 34.323 29.057 34.323 16.068 0 25.425-11.745 27.758-27.508l-1.179-.415c-4.099 8.472-11.461 13.606-19.839 12.98-11.438-.856-20.2-12.45-19.405-26.497m87.34 25.85c-1.345 3.188-4.15 4.942-7.91 4.942-3.759 0-7.196-2.58-9.637-7.269-2.623-5.032-4.004-12.147-4.004-20.575 0-17.541 5.457-28.887 13.902-28.887 3.537 0 6.321 1.754 7.649 4.815V82.77Zm27.191 12.504c-5.012-1.185-7.557-2.95-7.557-9.344V.866l-30.452 8.97v1.098l.187-.014c4.2-.34 7.05.24 8.704 1.768 1.296 1.197 1.927 3.033 1.927 5.617v11.662c-3.002-1.916-6.573-2.849-10.907-2.849-8.788 0-16.82 3.7-22.613 10.42-6.039 7.003-9.231 16.574-9.231 27.674-.002 19.824 9.759 33.149 24.286 33.149 8.498 0 15.335-4.656 18.465-12.508v10.54h27.324v-1.091l-.133-.027Zm26.117-82.84c0-6.19-4.668-10.86-10.861-10.86-6.163 0-10.985 4.77-10.985 10.86 0 6.088 4.827 10.858 10.985 10.858 6.193 0 10.861-4.668 10.861-10.859Zm7.188 82.84c-5.012-1.185-7.557-2.95-7.557-9.344h-.021V27.32l-27.326 7.844v1.066l.164.014c5.913.526 7.531 2.563 7.531 9.47v50.68h27.348v-1.092l-.139-.027Zm70.019 0c-5.012-1.185-7.557-2.95-7.557-9.344V27.32l-26.017 7.585v1.069l.154.016c4.833.508 6.23 2.66 6.23 9.6v37.05c-1.611 3.188-4.635 5.081-8.298 5.21-5.94 0-9.211-4.012-9.211-11.296V27.321l-27.325 7.845v1.064l.164.014c5.912.525 7.532 2.56 7.532 9.47V77.07a35.11 35.11 0 0 0 .569 6.528l.492 2.14c2.313 8.288 8.375 12.623 17.871 12.623 8.044 0 15.094-4.979 18.2-12.77v10.82h27.325V95.32l-.129-.045Zm106.152 1.118V95.3l-.133-.031c-5.438-1.254-7.557-3.618-7.557-8.431v-39.87c0-12.43-6.983-19.85-18.68-19.85-8.525 0-15.715 4.926-18.483 12.6-2.198-8.131-8.526-12.6-17.881-12.6-8.218 0-14.658 4.336-17.421 11.66V27.326l-27.325 7.522v1.073l.164.014c5.842.519 7.53 2.614 7.53 9.345v51.114h25.496v-1.091l-.134-.033c-4.339-1.02-5.739-2.879-5.739-7.65V41.922c1.148-2.68 3.461-5.855 8.034-5.855 5.68 0 8.559 3.934 8.559 11.685v48.642h25.502v-1.091l-.135-.033c-4.338-1.02-5.738-2.879-5.738-7.65V46.965a26.33 26.33 0 0 0-.361-4.538c1.217-2.913 3.663-6.36 8.423-6.36 5.76 0 8.558 3.82 8.558 11.685v48.642h27.321Z"/></g><defs><clipPath id="a"><path fill="#fff" d="M0 0h646v100H0z"/></clipPath></defs></svg>