<svg fill="none" xmlns="http://www.w3.org/2000/svg" viewBox="0 0 672 100"><g clip-path="url(#a)"><path d="M280.623 19.12 267.565 67c-5.227 21.194 41.948 21.677 48.314 0l13.058-47.882c5.223-21.03-41.948-21.514-48.314 0Zm28.721 4.852-10.453 38.176c-2.285 8.249-14.2 8.249-11.916 0l10.454-38.176c2.29-8.25 14.206-8.25 11.915 0ZM426.871 5.854l-22.848 26.53 7.341-26.53h-17.792l-20.076 73.44h17.792l8.978-32.836h.162l6.529 32.836h19.264l-7.834-40.597h-.327l28.238-32.836-19.427-.007ZM369.906 43.06c9.631-2.265 10.773-9.544 13.058-18.28 2.937-10.514 6.366-19.087-10.453-19.087h-34.27l-19.913 73.601h17.791l8.162-29.764h6.039c4.079 0 6.201.485 4.569 6.309l-6.366 23.294v.161h19.097l4.896-17.955c2.777-10.837 5.545-16.5-2.61-18.28Zm-6.856-12.78c-1.632 5.662-3.917 6.31-7.998 6.31h-7.346l4.734-17.47h7.346c3.917 0 6.039.485 4.734 5.82.327-1.292-1.468 5.34-1.468 5.34h-.002ZM183.995 42.088l1.792-35.912v-.322H171.75l-.163.324-17.795 35.91 2.781-36.234H99.935l-19.913 73.44h38.677l3.584-13.264h-20.88l4.734-17.47h20.893l3.584-13.265h-20.885l4.406-16.176h23.504l-4.57 60.177h18.118l17.954-37.853-2.775 37.851h18.117l34.278-73.44H200.97l-16.975 36.234ZM78.067 5.854 67.614 44.19 63.7 5.854H43.786L23.71 79.294h15.829l11.425-41.897 4.404 41.897h18.45l20.078-73.44H78.067ZM268.708 5.854l-17.472 25.882-3.257-25.882h-16.16l5.714 43.676-7.999 29.764h17.622l8.161-29.764 29.55-43.676h-16.159ZM518.765 19.12 505.707 67c-5.227 21.194 41.948 21.677 48.314 0l13.057-47.882c5.224-21.03-41.947-21.514-48.313 0Zm28.721 4.852-10.453 38.337c-2.285 8.25-14.201 8.25-11.916 0l10.454-38.176c2.29-8.41 14.206-8.41 11.915-.161ZM599.07 30.442h17.792c.979-3.721 3.101-11.324 3.101-11.324 4.243-17.631-24.157-20.705-39.827-9.543a26.098 26.098 0 0 0-8.978 11.641c-6.691 21.353 25.136 30.574 17.622 43.191-3.584 5.5-13.221 4.368-11.426-2.426l1.632-6.147h-17.785l-3.102 11.324c-5.387 21.838 41.458 21.03 49.62-.809 10.773-27.337-24.64-32.515-16.974-45.455 3.584-5.5 11.588-3.236 9.793 3.558l-1.468 5.99ZM626.655 5.854l-3.754 13.264h11.915l-16.322 60.176h17.791l16.323-60.176h11.915l3.584-13.264h-41.452ZM511.093 31.25c.653-1.94 1.143-4.205 1.792-6.308 2.942-10.515 3.92-19.088-12.892-19.088h-30.522l-20.076 73.44h17.791l6.202-22.485h12.731c16.812 0 20.403-8.412 23.178-19.088.654-2.264 1.307-4.53 1.796-6.47Zm-17.791 0c-.98 3.398-1.96 7.119-1.792 6.47-1.632 5.177-3.917 5.822-7.834 5.822h-6.529l6.692-24.427h6.528c3.917 0 6.039.485 4.734 5.82a34.73 34.73 0 0 0-1.802 6.316h.003Z" fill="#000"/><path d="m429.969 81.398-7.995-41.09a1.933 1.933 0 0 1 .49-1.617l30.354-34.94c.327-.324.162-.648-.328-.648h-26.762a2.917 2.917 0 0 0-1.632.648l-10.453 8.736c-.327.323-.653.16-.49-.324l2.122-8.088a.715.715 0 0 0-.653-.97H392.43a2.912 2.912 0 0 0-1.632.647l-3.102 2.912c-.327.324-.652.485-.979 0-2.612-3.72-8.978-3.72-12.731-3.72h-37.051a2.912 2.912 0 0 0-1.632.647l-4.57 4.852c-.327.324-.653.485-.98.161 0 0-3.264-8.088-20.239-8.249-12.895-.161-19.264 4.367-19.264 4.367-.49.324-.49 0-.163-.485l.328-.485c.327-.485 0-.809-.49-.809h-21.87a2.77 2.77 0 0 0-1.632.485l-13.385 9.221c-.49.324-.817.161-.817-.324l-1.142-8.412a1.088 1.088 0 0 0-1.143-.97h-20.729a3.465 3.465 0 0 0-1.632.648l-8.166 9.22c-.327.323-.489.323-.162-.162l4.081-8.897c.163-.485 0-.809-.49-.809h-23.011a2.917 2.917 0 0 0-1.632.648l-8.978 9.22c-.327.325-.652.325-.652-.323l.49-8.573a.907.907 0 0 0-.816-.97h-17.621a2.912 2.912 0 0 0-1.632.648l-8.984 8.73c-.327.325-.653.162-.653-.323l.653-8.088a.908.908 0 0 0-.817-.97H76.267a2.914 2.914 0 0 0-1.632.648l-6.691 7.117c-.327.324-.653.324-.817-.323l-.653-6.633a1.044 1.044 0 0 0-.98-.97H41.992a2.915 2.915 0 0 0-1.632.646L20.445 25.428a3.072 3.072 0 0 0-.817 1.618L.038 98.712a.713.713 0 0 0 .653.97h15.177a2.776 2.776 0 0 0 1.632-.485l11.916-8.25c.49-.323.817-.16.817.325l.822 7.44a1.045 1.045 0 0 0 .98.97h17.954a2.914 2.914 0 0 0 1.633-.648l4.896-4.206c.327-.324.653-.16.49.324l-.98 3.71a.713.713 0 0 0 .653.97h38.358a2.776 2.776 0 0 0 1.632-.486l12.245-8.573c.49-.324.817-.161.653.324l-.657 7.615a.904.904 0 0 0 .817.97h17.621a3.744 3.744 0 0 0 1.792-.485l13.062-8.418c.49-.324.817-.161.653.485l-.653 7.597a.908.908 0 0 0 .817.97h17.621a2.778 2.778 0 0 0 1.633-.485l23.178-16.176a3.27 3.27 0 0 0 1.142-1.455l21.546-46.103c.163-.485.49-.485.49 0l4.406 33.485a6.57 6.57 0 0 1-.162 1.78l-7.171 27.835a.703.703 0 0 0 .073.655.712.712 0 0 0 .579.315h20.566a2.918 2.918 0 0 0 1.633-.648l14.037-11c.327-.324.98-.485 1.142.161 0 0 2.612 11.324 21.382 11.162a42.131 42.131 0 0 0 21.219-5.985c.49-.162 1.142-.648 1.632-.81l8.811-4.852c.489-.323.652 0 .489.486l-2.934 10.665a.714.714 0 0 0 .653.97h17.139a2.777 2.777 0 0 0 1.632-.485l12.078-8.412c.49-.324.652-.16.49.324l-2.122 7.761a.702.702 0 0 0 .073.655.711.711 0 0 0 .579.316h18.444a2.917 2.917 0 0 0 1.633-.648l4.896-4.045c.327-.324.653-.161.49.324l-.98 3.397a.715.715 0 0 0 .653.97h17.303a2.918 2.918 0 0 0 1.633-.648l10.772-8.412a.584.584 0 0 1 .98.324l1.469 7.761a1.396 1.396 0 0 0 1.143.97h23.83a2.918 2.918 0 0 0 1.633-.647L428.83 83.16c.978-.63 1.305-1.278 1.139-1.761ZM55.376 79.294l-4.414-41.895-11.42 41.895h-15.83l20.082-73.44H63.7l3.917 38.337L78.07 5.854H93.9l-20.08 73.44H55.376Zm129.109 0h-18.119l2.612-37.852-17.954 37.852h-17.955l4.57-60.013h-23.51l-4.4 16.176h20.891l-3.584 13.264h-20.899l-4.734 17.47h20.894l-3.584 13.264H80.022L99.935 5.854h56.475l-2.774 36.234 17.791-35.913.163-.324h14.037v.324l-1.792 35.912 16.972-36.233h17.954l-34.276 73.44Zm70.839-29.764-8.161 29.603h-17.791l8.161-29.603-5.714-43.676h16.159l3.435 25.882 17.472-25.882h16.16L255.324 49.53ZM267.569 67l13.058-47.882c6.529-21.676 53.538-21.194 48.314 0L315.879 67c-6.529 21.676-53.538 21.191-48.314 0h.004Zm99.893 12.294H348.36v-.161l6.366-23.294c1.633-5.661-.489-6.31-4.569-6.31h-6.039l-8.163 29.765h-17.621l20.07-73.44h34.277c16.812 0 13.384 8.412 10.453 19.088-2.285 8.573-3.584 15.852-13.058 18.279 8.161 1.779 5.387 7.442 2.448 18.279l-5.062 17.794Zm39.5 0-6.529-32.836h-.163l-8.978 32.836h-17.796l20.078-73.44h17.792l-7.183 26.53 22.848-26.53h19.423l-28.237 32.835h.163l7.998 40.598-19.416.007ZM490.2 19.118h-6.529l-6.691 24.427h6.529c3.917 0 6.366-.485 7.835-5.821-.163.648.815-2.912 1.792-6.47.98-3.397 1.959-7.118 1.792-6.47 1.316-5.181-.809-5.666-4.728-5.666ZM535.741 23.972l-10.453 38.176c-2.285 8.249 9.63 8.249 11.915 0l10.453-38.176c2.122-8.251-9.793-8.251-11.915 0Z" fill="#fff"/><path d="M359.786 19.118h-7.344l-4.734 17.47h7.345c4.082 0 6.529-.485 7.999-6.309 0 0 1.792-6.633 1.469-5.5 1.304-5.176-.817-5.661-4.735-5.661ZM297.435 23.972l-10.454 38.176c-2.285 8.249 9.631 8.249 11.916 0l10.453-38.176c2.285-8.251-9.631-8.251-11.915 0ZM671.379 2.942H625.35c-.661.1-1.281.38-1.792.809l-2.612 2.588c-.49.324-.653 1.133-1.143 0-3.92-4.691-10.286-6.47-18.448-6.31-3.102 0-13.548-.162-22.848 6.308a29.173 29.173 0 0 0-7.183 7.124c-.327.485-.653.81-.653-.161.163-4.045-3.584-13.582-23.178-13.264-7.998-.324-23.993 1.779-29.707 13.75-.162.484-.327.484-.327 0 .653-8.089-4.244-11-15.179-11h-33.95a2.912 2.912 0 0 0-1.632.647l-20.403 21.833a3.068 3.068 0 0 0-.817 1.618l-19.59 71.503a.714.714 0 0 0 .653.97h18.771a4.821 4.821 0 0 0 1.632-.488l22.199-16.177c.468-.372.81-.88.979-1.455l1.632-5.82c.163-.486.49-.97 1.143-.81 1.959.162 9.466-.647 11.915-1.779.49-.16.653.162.49.81l-1.959 7.602c-4.889 18.436 21.543 18.114 21.543 18.114 15.996 0 24.81-1.618 28.564-9.382.163-.485.163-.485.327 0 0 0-.49 3.72 6.202 6.633 5.712 2.426 20.892 5.338 35.909-1.133 1.142-.485 22.361-12.294 22.361-12.294.49-.324.652 0 .652.485l-4.079 14.882a.702.702 0 0 0 .073.655.712.712 0 0 0 .579.315h17.302a2.776 2.776 0 0 0 1.632-.485l23.504-16.176c.468-.373.81-.881.979-1.456l13.387-48.69a4.576 4.576 0 0 1 .979-1.456l12.895-8.736c.469-.372.811-.88.98-1.455l4.734-17.313c.33-.32.003-.806-.487-.806ZM486.12 56.648h-12.73l-6.202 22.485h-17.792l20.077-73.44h30.522c16.812 0 15.829 8.412 12.895 19.088-.653 2.264-1.143 4.367-1.792 6.309a131.383 131.383 0 0 1-1.792 6.308c-2.778 10.84-6.372 19.25-23.186 19.25ZM554.016 67c-6.529 21.676-53.537 21.194-48.314 0l13.058-47.882c6.529-21.676 53.538-21.194 48.314 0L554.016 67Zm45.05-36.558 1.632-6.146c1.792-6.794-6.202-9.059-9.793-3.559-7.509 12.78 27.747 18.118 16.974 45.455-8.161 21.838-55.005 22.81-49.619.81l3.102-11.324h17.791l-1.627 6.141c-1.792 6.794 7.671 7.927 11.425 2.427 7.346-12.618-24.49-21.837-17.621-43.19a26.098 26.098 0 0 1 8.978-11.643c15.507-11 44.07-7.926 39.826 9.544 0 0-2.122 7.76-3.102 11.324l-17.954.16h-.012Zm65.452-11.324h-11.915l-16.316 60.015h-17.792l16.322-60.014h-11.915l3.584-13.264h41.472l-3.44 13.263Z" fill="#fff"/></g><defs><clipPath id="a"><path fill="#fff" d="M0 0h672v100H0z"/></clipPath></defs></svg>