<svg fill="none" xmlns="http://www.w3.org/2000/svg" viewBox="0 0 369 100"><g clip-path="url(#a)" fill="#000"><path d="M39.206.51C17.643.51 0 18.166 0 39.742c0 21.577 17.643 39.231 39.206 39.231 21.564 0 39.206-17.545 39.206-39.23C78.412 18.056 60.88.51 39.206.51Zm0 64.405c-13.395 0-24.177-11.007-24.177-25.174 0-14.166 10.782-25.173 24.177-25.173 13.396 0 24.177 11.007 24.177 25.174 0 14.166-10.781 25.173-24.177 25.173ZM118.054 22.306c-7.079 0-13.94 2.833-17.534 7.628v-6.539H86.362v76.282h14.158v-27.57c3.594 4.468 10.237 6.865 17.534 6.865 15.246 0 27.226-11.987 27.226-28.333 0-16.346-11.98-28.333-27.226-28.333Zm-2.396 44.352c-8.059 0-15.247-6.32-15.247-16.019 0-9.699 7.188-16.02 15.247-16.02 8.059 0 15.246 6.321 15.246 16.02s-7.187 16.02-15.246 16.02ZM178.608 22.306c-15.465 0-27.663 12.096-27.663 28.333s10.673 28.333 28.098 28.333c14.267 0 23.415-8.609 26.247-18.307h-13.832c-1.742 4.032-6.643 6.865-12.524 6.865-7.296 0-12.851-5.122-14.158-12.423h41.167v-5.558c0-14.82-10.346-27.243-27.335-27.243ZM164.885 45.08c1.525-6.865 7.188-11.333 14.049-11.333 7.297 0 12.851 4.795 13.505 11.333h-27.554ZM243.623 22.306c-6.316 0-12.96 2.833-16.009 7.519v-6.43h-14.158v54.488h14.158V48.569c0-8.5 4.574-14.058 11.98-14.058 6.861 0 10.564 5.23 10.564 12.532v30.84h14.158V44.754c0-13.512-8.277-22.448-20.693-22.448ZM300.576 1.603l-30.82 76.282h15.138l6.534-16.674h35.068l6.534 16.674h15.356L317.783 1.603h-17.207Zm-4.247 46.968 12.633-31.93 12.524 31.93h-25.157ZM368.534 1.603h-14.376v76.282h14.376V1.603Z"/></g><defs><clipPath id="a"><path fill="#fff" d="M0 0h369v100H0z"/></clipPath></defs></svg>