<svg fill="none" xmlns="http://www.w3.org/2000/svg" viewBox="0 0 397 100"><path fill-rule="evenodd" clip-rule="evenodd" d="m25.252 10.5 22.496 20.726V10.548h4.379v20.771L74.722 10.5v23.631H84v34.085h-9.249V89.26L52.126 69.38v20.106h-4.378V69.709L25.278 89.5V68.216H16V34.131h9.252V10.5Zm19.194 27.956H20.38v25.435h4.893v-8.023l19.174-17.412Zm-14.79 19.331v22.061l18.092-15.934V41.355L29.656 57.787Zm22.596 5.916V41.334L70.35 57.767v10.45h.023v11.406l-18.12-15.92Zm22.5.188h4.869V38.457H55.733l19.018 17.23v8.204Zm-4.408-29.76V20.45L55.494 34.13h14.85Zm-25.864 0H29.631V20.45l14.85 13.681Z" fill="#000"/><mask id="a" style="mask-type:luminance" maskUnits="userSpaceOnUse" x="102" y="21" width="279" height="58"><path d="M381 21H102.75v58H381V21Z" fill="#fff"/></mask><g mask="url(#a)"><path d="M192.19 33.612h2.781v5.73h-3.599c-2.821 0-4.924.678-6.319 2.039-1.386 1.357-2.083 3.588-2.083 6.69v18.787h-5.682V33.743h5.682v5.284c0 .298.15.445.442.445.166 0 .292-.04.381-.126.089-.086.166-.254.255-.511 1.094-3.478 3.814-5.219 8.146-5.219h-.004v-.004Zm37.796 7.099c1.492 2.652 2.241 5.848 2.241 9.583 0 3.736-.745 6.931-2.241 9.584-1.495 2.652-3.433 4.638-5.812 5.954a15.594 15.594 0 0 1-7.671 1.974c-5.391 0-9.18-2.166-11.368-6.498-.166-.339-.381-.51-.632-.51-.252 0-.381.126-.381.383v17.77h-5.683V33.739h5.683v5.668c0 .253.125.384.381.384.255 0 .462-.167.632-.51 2.188-4.333 5.977-6.499 11.368-6.499 2.735 0 5.293.658 7.671 1.974 2.379 1.316 4.313 3.302 5.812 5.955Zm-3.437 9.583c0-3.907-1.041-6.951-3.124-9.138-2.083-2.186-4.827-3.277-8.243-3.277-3.417 0-6.161 1.095-8.244 3.277-2.087 2.187-2.849 5.235-2.849 9.138 0 3.903.766 6.952 2.849 9.138 2.083 2.191 4.831 3.278 8.244 3.278 3.412 0 6.16-1.095 8.243-3.278 2.083-2.182 3.124-5.235 3.124-9.138Zm-92.257-9.534c1.492 2.652 2.242 5.848 2.242 9.583 0 3.736-.746 6.931-2.242 9.584-1.495 2.652-3.432 4.639-5.811 5.954a15.598 15.598 0 0 1-7.672 1.974c-5.39 0-9.179-2.166-11.368-6.498-.166-.339-.381-.51-.632-.51-.252 0-.381.126-.381.383V79h-5.678V33.788h5.682v5.668c0 .253.126.384.381.384s.462-.167.632-.51c2.189-4.333 5.978-6.499 11.368-6.499 2.736 0 5.293.658 7.672 1.974 2.379 1.316 4.312 3.303 5.812 5.955h-.005Zm-3.44 9.583c0-3.907-1.042-6.951-3.125-9.138-2.083-2.182-4.831-3.277-8.243-3.277-3.413 0-6.16 1.095-8.243 3.277-2.083 2.19-2.849 5.236-2.849 9.138 0 3.903.766 6.952 2.849 9.138 2.083 2.191 4.826 3.278 8.243 3.278 3.416 0 6.16-1.095 8.243-3.278 2.083-2.182 3.125-5.235 3.125-9.138Zm36.393 5.996h5.999c-.799 3.102-2.432 5.787-4.892 8.055-2.464 2.272-5.99 3.404-10.582 3.404-3.453 0-6.492-.711-9.122-2.133-2.631-1.422-4.661-3.446-6.096-6.082-1.434-2.631-2.148-5.73-2.148-9.297 0-3.568.697-6.666 2.083-9.297 1.386-2.632 3.336-4.66 5.84-6.081 2.505-1.423 5.439-2.134 8.807-2.134 3.368 0 6.16.703 8.494 2.1 2.339 1.402 4.081 3.262 5.241 5.571 1.159 2.317 1.734 4.851 1.734 7.61v3.82h-26.205c.207 3.311 1.317 5.947 3.315 7.897 1.998 1.953 4.685 2.93 8.053 2.93 2.736 0 4.835-.56 6.286-1.688 1.451-1.128 2.513-2.685 3.19-4.684l.003.009Zm-20.964-9.233h19.83c0-2.885-.738-5.149-2.213-6.784-1.475-1.63-3.789-2.452-6.946-2.452-2.947 0-5.358.797-7.231 2.391-1.872 1.59-3.019 3.874-3.44 6.845Zm90.53 19.744h5.686V21h-5.686v45.854-.004Zm79.912-36.728h6.639v-7.169h-6.639v7.169Zm24.514 31.795c-1.032.106-1.657.16-1.862.16-.292 0-.533-.086-.698-.258-.167-.168-.255-.4-.255-.703 0-.208.055-.838.163-1.88.1-1.038.157-2.644.157-4.806V38.586h8.106l-1.598-4.852h-6.505v-8.917h-5.68v8.913h-6.182v4.852h6.182v17.434c0 3.654.887 6.371 2.652 8.153 1.768 1.782 4.463 2.677 8.088 2.677h4.42v-5.092h-2.212c-2.148 0-3.738.053-4.771.159l-.005.004Zm34.348-28.183-9.41 27.787c-.125.343-.325.788-.968.788-.645 0-.847-.445-.974-.788l-9.41-27.787h-5.796l10.898 33.116h3.855c.25 0 .443.025.573.065.125.041.23.147.315.319.165.254.145.638-.065 1.145l-1.768 4.838c-.255.638-.737.957-1.45.957-.255 0-.843-.054-1.768-.16-.927-.106-2.122-.16-3.597-.16h-4.612v5.093h6.062c3.538 0 5.665-.605 7.497-1.815 1.833-1.21 3.251-3.343 4.263-6.4L381 35.006v-1.27h-5.415ZM297.49 46.09l-8.905-12.355h-6.253v1.271l10.671 14.329-13.011 16.24v1.272h6.38l10.358-13.311 9.662 13.31h6.128v-1.27L301.212 50.29l12.258-15.219v-1.337h-6.38l-9.598 12.355h-.002Zm19.838 20.761h5.685V33.739h-5.685v33.115-.004Zm-37.413-10.511c-.802 3.102-2.43 5.787-4.89 8.055-2.465 2.272-5.99 3.404-10.582 3.404-3.453 0-6.493-.711-9.123-2.133-2.635-1.422-4.66-3.446-6.095-6.082-1.431-2.631-2.144-5.73-2.144-9.297 0-3.568.697-6.666 2.083-9.297 1.391-2.632 3.336-4.66 5.841-6.081 2.503-1.423 5.438-2.134 8.81-2.134 3.373 0 6.16.703 8.497 2.1 2.336 1.402 4.083 3.262 5.24 5.571 1.16 2.317 1.736 4.851 1.736 7.61v3.82H253.08c.21 3.311 1.315 5.947 3.315 7.897 1.997 1.953 4.685 2.93 8.053 2.93 2.735 0 4.835-.56 6.285-1.688 1.45-1.128 2.512-2.685 3.185-4.684h6.002l-.005.009Zm-26.82-9.233h19.83c0-2.885-.738-5.149-2.208-6.784-1.477-1.63-3.79-2.452-6.947-2.452-2.948 0-5.357.797-7.23 2.391-1.872 1.59-3.022 3.874-3.44 6.845h-.005Z" fill="#000"/></g></svg>