<svg fill="none" xmlns="http://www.w3.org/2000/svg" viewBox="0 0 427 100"><g clip-path="url(#a)"><mask id="b" style="mask-type:luminance" maskUnits="userSpaceOnUse" x="-84" y="-84" width="595" height="268"><path d="M-83.303-83.18h593.534V183.18H-83.303V-83.181Z" fill="#fff"/></mask><g mask="url(#b)"><path d="M99.964 50c0 27.583-22.378 49.943-49.982 49.943S0 77.583 0 50C0 22.418 22.378.057 49.982.057S99.964 22.417 99.964 50Z" fill="#000"/><path d="M56.647 50H42.485V35.017h14.162a7.495 7.495 0 0 1 7.497 7.492A7.495 7.495 0 0 1 56.647 50Zm0-24.971H32.489v49.943h9.996V59.989h14.162c9.661 0 17.493-7.826 17.493-17.48s-7.832-17.48-17.493-17.48Z" fill="#fff"/><path d="M152.473 43.895c0-2.746-2.114-4.414-4.859-4.414h-7.36v8.779h7.36c2.749 0 4.859-1.668 4.859-4.364Zm-19.188 22.753V33.353h15.308c7.117 0 10.996 4.805 10.996 10.542 0 5.688-3.923 10.493-10.996 10.493h-8.34v12.26h-6.968Zm30.54 0V42.374h6.23v3.188c1.718-2.06 4.615-3.775 7.559-3.775v6.079c-.443-.098-.983-.146-1.718-.146-2.061 0-4.81 1.176-5.842 2.697v16.23h-6.229Zm34.752-12.455c0-3.678-2.166-6.866-6.081-6.866-3.88 0-6.038 3.188-6.038 6.866 0 3.727 2.157 6.908 6.038 6.908 3.923 0 6.081-3.186 6.081-6.908Zm-18.601 0c0-6.718 4.707-12.406 12.515-12.406 7.851 0 12.563 5.688 12.563 12.406 0 6.717-4.711 12.455-12.563 12.455-7.804 0-12.515-5.738-12.515-12.455Zm46.048 4.215v-8.384c-1.031-1.57-3.288-2.697-5.35-2.697-3.58 0-6.034 2.795-6.034 6.866 0 4.118 2.458 6.908 6.034 6.908 2.062 0 4.319-1.123 5.35-2.697m0 8.24v-3.63c-1.866 2.354-4.415 3.63-7.312 3.63-5.938 0-10.501-4.512-10.501-12.456 0-7.698 4.467-12.406 10.501-12.406 2.797 0 5.446 1.177 7.312 3.628V33.353h6.281v33.295h-6.281v-.005Zm28.479.003v-3.579c-1.618 1.765-4.464 3.58-8.34 3.58-5.206 0-7.655-2.845-7.655-7.45v-16.82h6.23v14.364c0 3.286 1.718 4.364 4.367 4.364 2.405 0 4.319-1.323 5.398-2.697V42.374h6.233v24.274h-6.233Zm10.912-12.455c0-7.257 5.299-12.405 12.563-12.405 4.859 0 7.804 2.108 9.374 4.266l-4.075 3.822c-1.127-1.666-2.845-2.549-4.998-2.549-3.781 0-6.43 2.747-6.43 6.866 0 4.118 2.649 6.908 6.43 6.908 2.157 0 3.875-.98 4.998-2.599l4.075 3.83c-1.57 2.158-4.515 4.315-9.374 4.315-7.264 0-12.563-5.148-12.563-12.455m27.296 5.935V47.818h-3.924v-5.444h3.924v-6.471h6.233v6.471h4.807v5.444h-4.807v10.64c0 1.52.783 2.648 2.158 2.648.931 0 1.818-.344 2.157-.735l1.327 4.756c-.931.834-2.602 1.52-5.207 1.52-4.367 0-6.672-2.255-6.672-6.52m50.96 6.52V52.28h-15.46v14.368h-6.961V33.353h6.965v12.846h15.46V33.353h7.016v33.295h-7.02Zm29.322 0v-3.579c-1.618 1.765-4.464 3.58-8.34 3.58-5.206 0-7.655-2.845-7.655-7.45v-16.82h6.229v14.364c0 3.286 1.719 4.364 4.368 4.364 2.405 0 4.319-1.323 5.398-2.697V42.374h6.233v24.274h-6.233Zm28.426 0V51.742c0-3.286-1.714-4.414-4.367-4.414-2.458 0-4.316 1.373-5.398 2.747v16.574h-6.23V42.374h6.23v3.04c1.522-1.764 4.467-3.627 8.295-3.627 5.25 0 7.747 2.94 7.747 7.55v17.31h-6.281.004Zm13.71-6.52V47.817h-3.923v-5.443h3.923v-6.472h6.234v6.472h4.806v5.444h-4.806v10.64c0 1.52.783 2.647 2.157 2.647.932 0 1.818-.343 2.166-.734l1.323 4.755c-.931.835-2.602 1.521-5.206 1.521-4.368 0-6.673-2.256-6.673-6.521" fill="#000"/></g></g><defs><clipPath id="a"><path fill="#fff" d="M0 0h427v100H0z"/></clipPath></defs></svg>