<svg fill="none" xmlns="http://www.w3.org/2000/svg" viewBox="0 0 362 108"><g clip-path="url(#a)" filter="url(#b)"><path d="M54.016 0C26.368 0 4 22.361 4 50c0 13.796 5.604 26.296 14.634 35.37l-9.54 9.537C7.242 96.76 8.584 100 11.224 100h42.792c27.601 0 50.015-22.407 50.015-50 0-27.639-22.414-50-50.015-50Z" fill="#000"/><path d="M82.358 61.204c6.445 0 11.67-5.224 11.67-11.667S88.803 37.87 82.358 37.87c-6.446 0-11.67 5.224-11.67 11.667s5.224 11.667 11.67 11.667ZM25.674 61.204c6.445 0 11.67-5.224 11.67-11.667S32.119 37.87 25.674 37.87c-6.446 0-11.67 5.224-11.67 11.667s5.224 11.667 11.67 11.667Z" fill="#fff"/><path d="M54.062 84.537c18.415 0 33.344-11.193 33.344-25s-14.929-25-33.344-25-33.344 11.193-33.344 25 14.929 25 33.344 25Z" fill="#fff"/><path d="M44.198 57.176c-.185 4.213-3.01 5.74-6.298 5.74-3.288 0-5.79-2.268-5.558-6.48.232-4.214 3.01-6.945 6.299-6.945 3.288 0 5.742 3.472 5.557 7.685ZM63.926 57.176c.186 4.213 3.01 5.74 6.299 5.74 3.288 0 5.788-2.268 5.557-6.48-.185-4.214-3.01-6.945-6.298-6.945-3.288 0-5.79 3.472-5.558 7.685ZM54.062 66.157c-4.075 0-7.965.186-11.531.556-.602.046-1.02.694-.788 1.25a13.313 13.313 0 0 0 12.32 8.194c5.556 0 10.28-3.38 12.318-8.194.231-.556-.14-1.204-.741-1.25-3.659-.324-7.549-.556-11.578-.556Z" fill="#000"/><path d="M72.308 31.157c4.579 0 8.29-3.71 8.29-8.287a8.288 8.288 0 0 0-8.29-8.287 8.288 8.288 0 0 0-8.29 8.287 8.288 8.288 0 0 0 8.29 8.287Z" fill="#fff"/><path d="M53.923 35.602c-.973 0-1.806-.417-1.806-1.065 0-7.407 6.02-13.426 13.43-13.426.973 0 1.806.787 1.806 1.806a1.78 1.78 0 0 1-1.806 1.805c-5.418 0-9.864 4.398-9.864 9.861.046.602-.787 1.019-1.76 1.019Z" fill="#fff"/><path d="M33.083 56.806c.185-3.982 2.825-6.575 5.882-6.575 2.917 0 5.14 2.963 5.233 6.62.092-4.12-2.362-7.407-5.604-7.407s-6.067 2.825-6.298 7.037c-.185 4.26 2.315 6.39 5.557 6.39h.232c-2.918-.047-5.187-2.177-5.002-6.065ZM74.995 56.806c-.186-3.982-2.825-6.575-5.882-6.575-2.918 0-5.14 2.963-5.233 6.62-.093-4.12 2.362-7.407 5.604-7.407 3.288 0 6.066 2.825 6.298 7.037.231 4.213-2.316 6.39-5.557 6.39h-.232c2.918-.047 5.187-2.177 5.002-6.065ZM159.604 39.074l-5.372 12.778c-.694-.324-2.269-.74-3.797-.74s-3.057.37-4.539 1.11c-2.917 1.482-5.094 4.445-5.094 8.75v23.426h-13.384V38.843h13.014v6.388h.278c3.056-4.074 7.734-7.083 13.754-7.083 2.177 0 4.307.417 5.14.926ZM157.011 61.76c0-13.195 9.031-23.612 22.553-23.612 12.226 0 21.025 8.935 21.025 21.528 0 2.222-.231 4.26-.694 6.25h-30.704c1.389 4.769 5.557 8.519 11.763 8.519 3.427 0 8.289-1.25 10.929-3.241l4.168 10c-3.844 2.639-9.725 3.889-14.912 3.889-14.403 0-24.128-9.306-24.128-23.334Zm11.948-4.214h19.265c0-5.833-3.982-8.935-8.845-8.935-5.465 0-9.216 3.565-10.42 8.935ZM315.533 18.333c4.492 0 8.197 3.704 8.197 8.195 0 4.49-3.705 8.194-8.197 8.194-4.492 0-8.197-3.704-8.197-8.194 0-4.491 3.705-8.195 8.197-8.195Zm6.715 66.065h-13.384V38.843h13.384v45.555ZM237.777 19.167l-.046 23.981h-.278c-3.705-3.518-7.688-4.954-12.874-4.954-12.829 0-21.35 10.325-21.35 23.426 0 13.102 7.966 23.473 20.933 23.473 5.418 0 10.559-1.852 13.847-6.112h.37v5.417h12.736V19.167h-13.338Zm.648 54.398h-.463l-3.01-3.102c-1.945 1.944-4.585 3.102-7.734 3.102-6.576 0-11.161-5.185-11.161-11.898s4.585-11.898 11.161-11.898 11.161 5.185 11.161 11.898v11.898h.046ZM288.904 19.167l-.046 23.981h-.278c-3.705-3.518-7.687-4.954-12.874-4.954-12.828 0-21.35 10.325-21.35 23.426 0 13.102 7.966 23.473 20.933 23.473 5.418 0 10.559-1.852 13.847-6.112h.37v5.417h12.736V19.167h-13.338Zm.602 54.398h-.463l-3.01-3.102c-1.945 1.944-4.585 3.102-7.734 3.102-6.576 0-11.161-5.185-11.161-11.898s4.585-11.898 11.161-11.898 11.161 5.185 11.161 11.898v11.898h.046ZM348.228 38.843H358V50.23h-9.772v34.213h-13.383V50.231h-9.726V38.843h9.726V26.435h13.383v12.408Z" fill="#000"/></g><defs><clipPath id="a"><path fill="#fff" transform="translate(4)" d="M0 0h354v100H0z"/></clipPath><filter id="b" x="0" y="0" width="362" height="108" filterUnits="userSpaceOnUse" color-interpolation-filters="sRGB"><feFlood flood-opacity="0" result="BackgroundImageFix"/><feColorMatrix in="SourceAlpha" values="0 0 0 0 0 0 0 0 0 0 0 0 0 0 0 0 0 0 127 0" result="hardAlpha"/><feOffset dy="4"/><feGaussianBlur stdDeviation="2"/><feComposite in2="hardAlpha" operator="out"/><feColorMatrix values="0 0 0 0 0 0 0 0 0 0 0 0 0 0 0 0 0 0 0.25 0"/><feBlend in2="BackgroundImageFix" result="effect1_dropShadow_1_164"/><feBlend in="SourceGraphic" in2="effect1_dropShadow_1_164" result="shape"/></filter></defs></svg>