<svg fill="none" xmlns="http://www.w3.org/2000/svg" viewBox="0 0 350 100"><g clip-path="url(#a)" fill="#000"><path d="M121.085 55.608c-2.981-1.647-4.549-2.98-4.549-4.863 0-2.431 2.117-3.921 5.49-3.921 3.921 0 7.371 1.647 7.371 1.647l2.745-8.393s-2.509-1.96-9.96-1.96c-10.351 0-17.566 5.96-17.566 14.274 0 4.706 3.372 8.314 7.842 10.902 3.607 2.04 4.862 3.53 4.862 5.647 0 2.275-1.803 4.079-5.176 4.079-5.019 0-9.724-2.589-9.724-2.589l-2.902 8.392s4.392 2.903 11.685 2.903c10.666 0 18.273-5.255 18.273-14.667.157-5.177-3.765-8.784-8.391-11.451ZM163.59 37.96c-5.255 0-9.333 2.51-12.548 6.275l-.157-.078 4.549-23.843h-11.921L131.985 80.94h11.842l3.921-20.706c1.569-7.843 5.568-12.627 9.332-12.627 2.667 0 3.686 1.804 3.686 4.392 0 1.647-.157 3.608-.549 5.255l-4.47 23.765h11.842l4.627-24.471c.549-2.588.863-5.647.863-7.765.157-6.823-3.294-10.823-9.489-10.823ZM200.056 37.96c-14.273 0-23.762 12.864-23.762 27.217 0 9.176 5.646 16.627 16.312 16.627 14.038 0 23.448-12.55 23.448-27.216.079-8.549-4.862-16.627-15.998-16.627Zm-5.803 34.667c-4.078 0-5.725-3.45-5.725-7.764 0-6.824 3.529-17.883 9.96-17.883 4.234 0 5.568 3.608 5.568 7.138 0 7.372-3.529 18.51-9.803 18.51ZM246.482 37.96c-7.999 0-12.547 7.06-12.547 7.06h-.157l.706-6.353h-10.509c-.549 4.313-1.49 10.823-2.431 15.764l-8.234 43.294h11.841l3.294-17.568h.235s2.431 1.569 6.98 1.569c13.959 0 23.056-14.275 23.056-28.706 0-7.922-3.529-15.06-12.234-15.06Zm-11.293 34.903c-3.058 0-4.862-1.726-4.862-1.726l1.961-11.059c1.411-7.372 5.254-12.313 9.332-12.313 3.608 0 4.705 3.372 4.705 6.51 0 7.607-4.548 18.588-11.136 18.588ZM275.655 20.941c-3.764 0-6.822 2.98-6.822 6.902 0 3.53 2.195 5.96 5.568 5.96h.157c3.685 0 6.901-2.509 6.979-6.901.079-3.53-2.274-5.96-5.882-5.96ZM259.03 80.941h11.92l8.078-42.039h-11.999l-7.999 42.04ZM309.142 38.824h-8.234l.392-1.961c.705-4.079 3.058-7.686 7.058-7.686 2.117 0 3.764.627 3.764.627l2.353-9.255s-2.039-1.02-6.431-1.02c-4.235 0-8.391 1.177-11.607 3.922-4.078 3.451-5.96 8.392-6.901 13.412l-.313 1.96h-5.49l-1.725 8.942h5.489l-6.274 33.176h11.842l6.274-33.176h8.156l1.647-8.941ZM337.688 38.902s-7.45 18.667-10.744 28.863h-.157c-.235-3.294-2.902-28.863-2.902-28.863h-12.469l7.137 38.588c.156.863.078 1.412-.236 1.961-1.411 2.667-3.686 5.255-6.43 7.137-2.196 1.647-4.706 2.667-6.666 3.373L308.514 100c2.432-.549 7.372-2.51 11.607-6.431 5.411-5.098 10.43-12.863 15.528-23.53l14.508-31.137h-12.469ZM58.66 11.608s-1.098.314-2.901.863c-.314-1.02-.785-2.197-1.412-3.451-2.04-3.922-5.098-6.04-8.705-6.04-.235 0-.47 0-.784.079-.079-.157-.235-.235-.314-.392C42.976.94 40.937.157 38.506.235 33.8.392 29.094 3.765 25.33 9.804c-2.667 4.235-4.706 9.568-5.255 13.725-5.411 1.648-9.175 2.824-9.254 2.902-2.744.863-2.823.941-3.137 3.53C7.45 31.92.235 87.137.235 87.137l59.288 10.275V11.529c-.47 0-.706.079-.863.079Zm-13.724 4.235c-3.137.941-6.587 2.04-9.96 3.059.942-3.686 2.824-7.373 5.02-9.804.862-.863 2.038-1.882 3.372-2.51 1.333 2.824 1.647 6.667 1.568 9.255Zm-6.43-12.392c1.097 0 2.038.235 2.823.706-1.255.627-2.51 1.647-3.686 2.823-2.98 3.216-5.254 8.236-6.195 13.02-2.824.863-5.647 1.726-8.235 2.51 1.725-7.53 8.078-18.902 15.292-19.059Zm-9.098 43.137c.314 5.02 13.568 6.118 14.352 17.961.549 9.333-4.94 15.686-12.861 16.157-9.568.627-14.822-5.02-14.822-5.02l2.039-8.627s5.254 4 9.489 3.686c2.745-.157 3.764-2.431 3.686-4-.393-6.588-11.215-6.196-11.92-17.02-.628-9.098 5.332-18.274 18.507-19.137 5.098-.314 7.685.941 7.685.941l-2.98 11.295s-3.372-1.57-7.371-1.255c-5.804.392-5.882 4.078-5.804 5.02Zm18.665-31.686c0-2.353-.314-5.726-1.412-8.55 3.608.707 5.333 4.707 6.117 7.138-1.411.392-2.98.863-4.705 1.412ZM61.327 97.255l24.624-6.118S75.364 19.53 75.286 19.06c-.079-.47-.47-.785-.863-.785-.392 0-7.293-.156-7.293-.156s-4.235-4.079-5.803-5.647v84.784Z"/></g><defs><clipPath id="a"><path fill="#fff" d="M0 0h350v100H0z"/></clipPath></defs></svg>