<svg fill="none" xmlns="http://www.w3.org/2000/svg" viewBox="0 0 210 100"><path fill-rule="evenodd" clip-rule="evenodd" d="M185.769 50.966c0-11.505-5.564-20.584-16.198-20.584-10.68 0-17.141 9.079-17.141 20.494 0 13.529 7.628 20.36 18.576 20.36 5.34 0 9.379-1.214 12.43-2.921v-8.99c-3.051 1.529-6.551 2.473-10.994 2.473-4.352 0-8.211-1.528-8.705-6.832h21.942c0-.584.09-2.921.09-4Zm-22.166-4.27c0-5.078 3.096-7.19 5.923-7.19 2.737 0 5.653 2.112 5.653 7.19h-11.576ZM135.109 30.382c-4.397 0-7.224 2.067-8.795 3.506l-.583-2.787h-9.872v52.405l11.218-2.382.045-12.72c1.615 1.169 3.993 2.832 7.942 2.832 8.032 0 15.346-6.472 15.346-20.72-.045-13.033-7.448-20.134-15.301-20.134Zm-2.692 30.966c-2.648 0-4.218-.944-5.295-2.112l-.045-16.674c1.167-1.304 2.782-2.203 5.34-2.203 4.083 0 6.91 4.585 6.91 10.472 0 6.023-2.782 10.517-6.91 10.517ZM100.423 27.73l11.263-2.427V16.18l-11.263 2.382v9.168Z" fill="#000"/><path d="M111.686 31.146h-11.263v39.326h11.263V31.146Z" fill="#000"/><path fill-rule="evenodd" clip-rule="evenodd" d="m88.353 34.472-.718-3.326h-9.693v39.326H89.16V43.82c2.648-3.46 7.135-2.831 8.526-2.337V31.146c-1.436-.54-6.686-1.528-9.333 3.326ZM65.917 21.393 54.968 23.73l-.045 36c0 6.652 4.98 11.55 11.622 11.55 3.68 0 6.372-.673 7.852-1.482v-9.124c-1.435.584-8.525 2.652-8.525-4V40.72h8.525v-9.573h-8.525l.045-9.753ZM35.583 42.562c0-1.753 1.436-2.427 3.814-2.427 3.41 0 7.718 1.034 11.129 2.876V32.45c-3.725-1.483-7.404-2.067-11.129-2.067-9.108 0-15.166 4.764-15.166 12.72 0 12.404 17.051 10.426 17.051 15.774 0 2.068-1.795 2.742-4.308 2.742-3.724 0-8.48-1.528-12.25-3.596V68.72c4.173 1.798 8.391 2.562 12.25 2.562 9.334 0 15.75-4.63 15.75-12.674-.044-13.393-17.14-11.011-17.14-16.045Z" fill="#000"/></svg>