<svg fill="none" xmlns="http://www.w3.org/2000/svg" viewBox="0 0 761 100"><g clip-path="url(#a)"><path d="M56.974 10.252C56.974 2.017 49.075 0 42.857 0v1.176c3.697 0 6.554 1.177 6.554 4.202 0 1.68-1.176 4.202-5.042 4.202-2.857 0-9.075-1.68-13.613-3.362-5.378-2.016-10.252-3.697-14.454-3.697-8.235 0-14.117 6.218-14.117 13.277 0 6.219 4.538 8.236 6.218 9.076l.336-.84c-.84-.84-2.016-1.681-2.016-4.202 0-1.68 1.68-4.538 5.714-4.538 3.697 0 8.74 1.68 15.294 3.698 5.714 1.68 11.932 2.857 15.294 3.36v12.774l-6.219 5.378v.336l6.219 5.378v17.816c-3.362 2.016-7.059 2.52-10.252 2.52-6.219 0-11.597-1.68-16.135-6.554l16.975-8.235V23.193L13.277 32.27c1.68-5.378 6.219-9.076 10.756-11.597l-.504-1.176C11.092 22.857 0 34.454 0 48.403c0 16.47 13.613 28.908 28.907 28.908 16.47 0 27.227-13.277 27.227-26.89h-.672c-2.521 5.377-6.219 10.251-10.757 12.772V46.22l6.555-5.379v-.336l-6.555-5.378V22.353c6.219 0 12.27-4.202 12.27-12.1ZM21.008 55.798l-5.042 2.521c-2.857-3.697-4.538-8.74-4.538-15.63 0-2.857 0-6.218.84-8.74l8.74-3.697v25.546Zm43.865 9.58-5.378 4.202.84.84 2.521-2.017 9.076 8.236 12.437-8.236-.336-.84-3.362 2.017-4.201-4.202V37.143l3.361-2.521 7.059 5.714v25.21c0 15.63-3.362 18.151-10.252 20.672v1.177c11.596.336 22.352-3.361 22.352-23.53V36.807l3.698-2.857-.84-.84-3.362 2.52-10.42-8.74-11.596 8.74V1.68h-.84l-14.454 9.917v.84c1.68.84 4.201 1.68 4.201 6.219l-.504 46.722Zm75.63-4.538-10.252 7.9-10.252-8.236v-5.042l19.495-13.277v-.336L129.41 26.89l-21.512 11.596v27.227l-4.202 3.362.841.84 3.697-2.857 14.118 10.252 18.655-14.958-.504-1.513Zm-20.672-7.059V33.446l.84-.336 9.075 14.454-9.915 6.218Zm99.662-47.226c0-1.177-.336-2.521-.84-3.698h-.84c-1.177 3.361-2.857 5.042-7.059 5.042-3.697 0-6.218-2.017-7.899-3.697l-11.933 13.613.841.84 4.201-3.697c2.521 2.017 4.538 3.697 10.252 4.202v34.285l-24.369-41.848c-2.017-3.362-5.042-7.9-10.756-7.9-6.555 0-12.437 5.715-11.597 14.959h1.177c.336-2.521 1.68-5.379 4.537-5.379 2.017 0 4.202 2.017 5.378 4.202v13.613c-7.395 0-12.436 3.362-12.436 9.58 0 3.362 1.68 8.236 6.554 9.58v-.84c-.84-.84-1.176-1.68-1.176-2.857 0-2.017 1.68-3.698 4.537-3.698h2.017v17.311c-8.739 0-15.63 5.042-15.63 13.277 0 7.9 6.555 11.597 14.118 11.093v-.84c-4.538-.337-6.555-2.521-6.555-5.379 0-3.697 2.521-5.378 5.714-5.378 3.362 0 6.219 2.017 8.235 4.538l11.933-13.277-.84-.84-2.857 3.36c-4.538-4.201-7.059-5.377-12.437-6.218V18.992l33.277 57.815h2.521V18.992c6.05-.337 11.932-5.379 11.932-12.437Zm30.084 54.285-10.252 7.9-10.252-8.236v-5.042l19.496-13.277v-.336l-9.916-14.958-21.513 11.596v27.227l-4.201 3.362.84.84 3.698-2.857 14.117 10.252 18.655-14.958c-.168 0-.672-1.513-.672-1.513Zm-20.672-7.059V33.446l.84-.336 9.076 14.454c.168 0-9.916 6.218-9.916 6.218Zm88.066-22.352-2.857 2.016-7.899-6.554-9.075 8.235 3.697 3.698v30.924l-9.916-6.219V37.983l3.361-2.017-9.579-9.075-9.076 8.235 3.698 3.698V68.57l-1.177.84-8.739-6.218V38.487c0-5.714-2.857-7.395-6.219-9.58-2.857-2.016-4.537-3.36-4.537-6.218 0-2.52 2.521-3.697 3.697-4.538v-.84c-3.361 0-11.933 3.361-11.933 11.092 0 4.202 2.017 5.715 4.202 7.9 2.017 2.016 4.202 3.697 4.202 7.395V67.73l-4.538 3.361.84.84 4.202-3.36 9.58 8.235 10.252-7.06 11.596 7.06 21.849-12.773V36.302l5.378-4.201-1.009-.672Zm76.974-22.69-4.201 3.698-9.076-8.235-13.613 9.916V5.042h-1.177l.336 66.89c-1.176 0-5.042-.84-7.899-1.68l-.84-55.798c0-4.202-2.857-9.916-10.252-9.916-7.395 0-12.437 5.714-12.437 11.596h1.177c.336-2.52 1.68-4.537 4.201-4.537s4.538 1.68 4.538 7.059V34.79c-7.395.336-11.933 4.538-11.933 9.916 0 3.361 1.681 8.235 6.555 8.235v-.84c-1.681-.84-2.017-2.017-2.017-2.857 0-2.521 2.017-3.362 5.378-3.362h1.681V71.43c-6.218 2.016-8.739 6.554-8.739 11.596 0 7.059 5.378 11.933 13.613 11.933 5.714 0 10.756-.84 15.63-2.017 4.202-.84 9.58-2.017 11.933-2.017 3.361 0 4.537 1.681 4.537 3.698 0 2.857-1.176 4.201-2.857 4.538v.84c6.555-1.177 10.756-5.378 10.756-11.597 0-6.218-6.218-9.916-12.773-9.916-3.361 0-10.252 1.177-15.294 2.017-5.714 1.177-11.596 2.017-13.277 2.017-2.857 0-6.218-1.177-6.218-5.378 0-3.362 2.857-6.219 9.916-6.219 3.697 0 8.235.336 12.773 1.681 5.042 1.176 9.579 2.521 13.613 2.521 6.218 0 11.597-2.017 11.597-10.756V13.613l5.042-4.201-.673-.673Zm-16.974 25.21c-1.177 1.177-2.857 2.522-5.042 2.522-2.185 0-4.202-1.177-5.042-2.521V15.63l4.201-2.857 5.715 5.378c.168 0 .168 15.799.168 15.799Zm0 12.27c-.841-.84-2.857-2.017-5.042-2.017-2.185 0-4.202 1.176-5.042 2.017V35.462c.84.84 2.857 2.017 5.042 2.017 2.185 0 4.201-1.176 5.042-2.017v10.756Zm0 19.495c0 3.362-2.017 6.555-6.555 6.555h-3.361v-24.37c.84-.84 2.857-2.017 5.042-2.017 2.185 0 3.697 1.177 5.042 2.017-.168 0-.168 17.815-.168 17.815Zm56.638-29.411-13.277-9.58-20.336 11.596V65.21l-4.202 3.361.336.84 3.361-2.52 13.278 9.916 20.672-12.437c.168.168.168-28.068.168-28.068Zm-22.353 26.05V32.605L421.508 40v29.412c.168 0-10.252-7.06-10.252-7.06Zm61.68-34.622h-.84c-1.177.84-2.521 1.68-3.698 1.68-1.68 0-3.697-.84-4.538-2.016h-.84l-7.059 7.9-7.058-7.9-12.437 8.235.336.84 3.361-2.016 4.202 4.538v26.05l-5.378 4.202.84.84 2.521-2.017 9.916 8.236 12.773-8.74-.336-.84-3.698 2.017-5.042-4.202V35.63c2.017 2.017 4.538 4.202 7.395 4.202 5.714.336 9.076-5.546 9.58-12.1Zm49.579 39.664-14.117 9.58-18.992-28.908L503.02 27.06h.84c1.681 1.68 4.202 3.361 7.059 3.361s5.042-1.68 6.218-3.361h.841c-.337 8.235-6.219 13.277-10.252 13.277-4.202 0-6.219-2.017-8.74-3.361l-1.176 2.017 20.672 30.588 4.201-2.521v.336h-.168Zm-45.545-2.017-5.379 4.202.841.84 2.521-2.017 9.075 8.236 12.437-8.236-.84-.84-3.362 2.017-4.201-4.202V1.681h-.336l-14.958 9.916v.84c1.681.84 4.202 1.176 4.202 6.219v46.722Zm114.116-55.126C591.086 2.017 583.187 0 576.968 0v1.176c3.698 0 6.555 1.177 6.555 4.202 0 1.68-1.176 4.202-5.042 4.202-2.857 0-9.075-1.68-13.613-3.362-5.378-1.68-10.252-3.36-14.454-3.36-8.235 0-14.117 6.218-14.117 13.276 0 6.219 4.537 8.236 6.218 9.076l.336-.84c-1.176-.84-2.521-1.68-2.521-4.202 0-1.68 1.681-4.538 5.714-4.538 3.698 0 8.74 1.68 15.294 3.698 5.715 1.68 11.933 2.857 15.294 3.361v12.773l-6.218 5.378v.336l6.218 5.379V64.37c-3.361 2.017-7.058 2.52-10.252 2.52-6.218 0-11.596-1.68-16.134-6.554l16.975-8.235V23.193l-20.672 9.076c2.016-5.378 6.554-9.076 10.756-11.933l-.336-.84c-12.437 3.361-23.529 14.454-23.529 28.571 0 16.47 13.613 28.908 28.907 28.908 16.47 0 27.226-13.277 27.226-26.891h-.84c-2.521 5.378-6.218 10.252-10.756 12.773V45.882l6.554-5.378v-.336l-6.218-5.378V22.353c6.555 0 12.773-4.202 12.773-12.1ZM555.12 55.798l-5.042 2.521c-2.857-3.697-4.538-8.74-4.538-15.63 0-2.857.336-6.218 1.177-8.74l8.739-3.697-.336 25.546Zm50.42-49.58h-.505l-8.235 7.06v.335l7.059 7.9h.84l8.235-7.06v-.335l-7.394-7.9Zm12.436 61.177-3.361 2.017-4.202-4.202V36.64l4.202-2.858-.84-.84-2.857 2.521-7.395-8.74-11.933 8.236.84 1.177 2.858-2.017 3.697 4.538v26.89l-5.378 4.202.336.84 2.857-2.017 9.076 8.236 12.437-8.236-.337-1.176Zm68.907-.504-2.857 2.017-4.538-4.202v-27.9l4.202-3.36-.84-.841-3.362 2.857-9.579-8.74-12.437 8.74-9.58-8.74-11.596 8.74-7.395-8.74-11.933 8.236.336 1.177 2.857-2.017 4.202 4.538v26.89l-3.361 3.362 9.579 7.899 9.076-8.236-3.698-3.697V36.807l3.698-2.521L645.875 40v24.874l-3.361 3.361 9.58 7.9 9.075-8.236-3.697-3.697V36.807l3.361-2.017 6.555 5.714v24.874l-2.857 2.857 9.579 8.74 12.773-8.74v-1.344Zm35.966-6.05-10.252 7.899-10.252-8.236v-5.042l19.496-13.277v-.336l-9.916-14.958-21.512 11.596v28.068l14.453 10.252 18.655-14.958c-.168.168-.672-1.009-.672-1.009Zm-20.672-7.06V33.446l.84-.336 9.076 14.454-9.916 6.218Zm58.319-3.697-7.899-6.219c5.378-4.537 7.395-10.756 7.395-14.957v-2.521h-.841c-.84 2.016-2.521 4.201-5.714 4.201-3.361 0-5.378-1.68-7.395-4.201l-18.655 10.252v14.958l7.059 5.378c-7.059 6.218-8.235 10.252-8.235 13.613 0 4.202 2.016 7.06 5.378 8.236l.336-.84c-.841-.841-1.681-1.177-1.681-3.362 0-1.177 1.681-3.362 5.042-3.362 4.202 0 6.555 2.858 7.899 4.202L761 64.706V49.748c0 .336-.504.336-.504.336Zm-4.538-12.437c-2.857 5.042-9.075 9.916-12.773 12.437l-4.538-3.697V31.933c1.681 4.202 6.219 7.395 10.757 7.395 2.857 0 4.537-.505 6.554-1.68Zm-7.059 33.11c-2.016-4.538-7.058-7.9-11.932-7.9-1.177 0-4.538 0-7.899 2.017 2.016-3.361 7.394-9.076 14.453-13.277l5.042 4.201.336 14.958Z" fill="#000"/></g><defs><clipPath id="a"><path fill="#fff" d="M0 0h761v100H0z"/></clipPath></defs></svg>