<svg fill="none" xmlns="http://www.w3.org/2000/svg" viewBox="0 0 446 100"><g clip-path="url(#a)"><path d="m334.808 25.532-.448 13.102c-15.325-1.008-19.688 2.911-19.688 15.79v1.679h-13.2V26.316h13.2v8.51c3.915-6.942 9.285-10.078 20.136-9.294ZM21.925 78.947h13.2v-50.84h-13.2v50.84ZM87.03 25.644c-9.173 0-14.766 4.143-17.787 8.623V6.27H0v12.318h56.939v37.626h12.528c0-10.75 6.265-18.365 13.871-18.365 6.6 0 9.509 3.247 9.509 14.894V79.17h13.2V47.816c0-14.893-7.607-22.172-19.017-22.172Zm51.681 43.225c-7.943 0-13.2-4.815-13.983-12.766h-12.305c1.23 13.998 10.403 23.964 26.288 23.964 12.305 0 19.24-5.487 22.82-13.886l-11.186-4.927c-1.678 5.04-4.811 7.615-11.634 7.615Zm-.448-43.001c-4.698-.112-9.284 1.008-13.535 3.135l6.264 8.959c2.349-1.232 4.922-1.792 7.607-1.792 7.383 0 11.074 4.815 11.634 11.086h-12.641v8.735h25.058c.223-1.344.223-2.575.223-3.807.112-19.037-12.528-26.316-24.61-26.316Zm130.098 43.001c-7.943 0-13.2-4.815-13.983-12.766h-12.305c1.23 13.998 10.403 23.964 26.288 23.964 12.305 0 19.24-5.487 22.82-13.886l-11.187-4.927c-1.789 5.04-4.922 7.615-11.633 7.615Zm-.448-43.001c-4.698-.112-9.284 1.008-13.535 3.135l6.264 8.959c2.349-1.232 4.922-1.792 7.607-1.792 7.383 0 11.186 4.815 11.634 11.086h-12.529v8.735h25.057c.224-1.344.224-2.575.224-3.807.112-19.037-12.529-26.316-24.722-26.316Zm154.036 43.001c-7.942 0-13.2-4.815-13.983-12.766h-12.305c1.231 13.998 10.404 23.964 26.288 23.964 12.305 0 19.241-5.487 22.82-13.886l-11.186-4.927c-1.79 5.04-4.81 7.615-11.634 7.615Zm-.671-43.001c-4.698-.112-9.285 1.008-13.535 3.135l6.264 8.959c2.349-1.232 4.922-1.792 7.607-1.792 7.383 0 11.074 4.815 11.634 11.086h-12.753v8.735h25.058c.223-1.344.223-2.575.223-3.807.336-19.037-12.305-26.316-24.498-26.316ZM169.697 0 193.3 56.103h14.319l-18.01-44.569h23.267V.112L169.697 0Zm70.138.112-27.071 68.645-4.027 10.302h13.76L255.049.112h-15.214Zm120.813 77.604c5.593 0 10.292-1.568 13.536-4.256l-5.258-8.286c-1.678.671-3.468 1.007-5.369 1.007-7.16 0-11.299-4.255-12.753-9.966H337.94c1.79 12.094 10.515 21.5 22.708 21.5Zm16.22-44.01c-3.02-4.703-9.061-8.174-17.45-8.174-8.278-.112-15.885 4.367-19.912 11.646l10.962 7.055c2.014-4.255 5.929-7.055 11.97-7.055 8.613 0 14.318 6.607 14.318 14.558 0 1.456-.223 3.023-.559 4.367h13.759V26.428h-13.2l.112 7.279Zm-12.752 55.992c-8.502 0-11.634-4.144-12.305-8.959h-12.529c.224 9.183 6.376 19.261 25.058 19.261 12.64 0 20.806-6.271 24.274-15.79l-11.858-4.143c-1.566 6.16-6.152 9.63-12.64 9.63Z" fill="#000"/></g><defs><clipPath id="a"><path fill="#fff" d="M0 0h446v100H0z"/></clipPath></defs></svg>