<svg fill="none" xmlns="http://www.w3.org/2000/svg" viewBox="0 0 448 100"><g clip-path="url(#a)"><path d="M223.225 81.166c.782-2.042 1.175-5.379 1.175-10.01V51.642c0-4.494-.393-7.78-1.175-9.858-.783-2.076-2.163-3.116-4.138-3.116-1.907 0-3.254 1.04-4.036 3.116-.783 2.078-1.175 5.364-1.175 9.858v19.514c0 4.631.374 7.968 1.124 10.01.748 2.044 2.11 3.065 4.087 3.065 1.975 0 3.355-1.02 4.138-3.065Zm-15.836 9.808c-2.829-1.905-4.839-4.87-6.029-8.888-1.193-4.017-1.788-9.364-1.788-16.039v-9.092c0-6.742.68-12.157 2.043-16.243 1.362-4.087 3.49-7.066 6.386-8.94 2.895-1.871 6.692-2.808 11.393-2.808 4.632 0 8.344.954 11.137 2.86 2.792 1.907 4.836 4.887 6.131 8.939 1.292 4.053 1.94 9.45 1.94 16.192v9.092c0 6.675-.63 12.04-1.89 16.09-1.26 4.053-3.304 7.016-6.131 8.887-2.827 1.874-6.657 2.81-11.494 2.81-4.973 0-8.873-.954-11.698-2.86ZM426.19 39.839c-.713.885-1.192 2.333-1.43 4.341-.24 2.01-.356 5.057-.356 9.143v4.495h10.318v-4.495c0-4.017-.137-7.065-.408-9.143-.273-2.077-.766-3.54-1.481-4.392-.716-.852-1.823-1.278-3.321-1.278-1.5 0-2.607.444-3.322 1.329Zm-1.786 26.357v3.167c0 4.02.116 7.033.356 9.041.238 2.01.731 3.474 1.482 4.394.749.918 1.905 1.379 3.474 1.379 2.11 0 3.559-.818 4.343-2.453.782-1.634 1.207-4.358 1.276-8.173l12.159.716c.069.546.103 1.295.103 2.247 0 5.79-1.583 10.115-4.752 12.975-3.166 2.86-7.647 4.29-13.436 4.29-6.947 0-11.818-2.178-14.61-6.538-2.795-4.357-4.191-11.1-4.191-20.227V56.082c0-9.399 1.448-16.26 4.344-20.586 2.894-4.324 7.85-6.487 14.867-6.487 4.835 0 8.548.886 11.136 2.656 2.588 1.773 4.411 4.53 5.467 8.276 1.056 3.746 1.584 8.923 1.584 15.528v10.727h-23.602ZM173.054 65.023 157.012 7.098h13.998l5.619 26.255c1.431 6.472 2.486 11.989 3.167 16.55h.41c.476-3.268 1.532-8.75 3.167-16.447l5.824-26.358h13.998l-16.246 57.925v27.79h-13.895v-27.79ZM284.129 30.189v62.624h-11.035l-1.227-7.662h-.306c-2.997 5.788-7.494 8.682-13.487 8.682-4.155 0-7.22-1.36-9.196-4.085-1.976-2.723-2.963-6.981-2.963-12.77v-46.79h14.101V76.16c0 2.794.307 4.785.919 5.976.613 1.194 1.635 1.788 3.065 1.788 1.227 0 2.402-.373 3.525-1.124 1.124-.749 1.958-1.7 2.504-2.859V30.189h14.1ZM356.455 30.189v62.624h-11.036l-1.226-7.662h-.305c-3 5.788-7.495 8.682-13.489 8.682-4.155 0-7.22-1.36-9.196-4.085-1.975-2.723-2.962-6.981-2.962-12.77v-46.79h14.1V76.16c0 2.794.306 4.785.919 5.976.614 1.194 1.636 1.788 3.066 1.788 1.226 0 2.401-.373 3.525-1.124 1.124-.749 1.958-1.7 2.503-2.859V30.189h14.101Z" fill="#000"/><path d="M322.444 18.44h-13.998v74.373h-13.793V18.44h-13.998V7.1h41.789v11.34ZM390.197 65.744c0 4.563-.189 8.14-.563 10.726-.374 2.59-1.005 4.428-1.89 5.517-.886 1.09-2.08 1.634-3.576 1.634a6.534 6.534 0 0 1-3.219-.817c-.989-.545-1.787-1.362-2.401-2.452V44.8c.476-1.701 1.293-3.098 2.452-4.188 1.158-1.088 2.417-1.634 3.78-1.634 1.431 0 2.537.562 3.321 1.685.782 1.124 1.328 3.014 1.635 5.67.307 2.656.461 6.436.461 11.34v8.07Zm12.924-25.545c-.852-3.949-2.232-6.81-4.138-8.581-1.908-1.77-4.531-2.656-7.867-2.656-2.589 0-5.007.733-7.255 2.196a14.935 14.935 0 0 0-5.211 5.773h-.103l.001-32.998h-13.589V92.81h11.647l1.431-5.924h.306c1.089 2.11 2.724 3.78 4.904 5.006 2.18 1.225 4.599 1.838 7.256 1.838 4.767 0 8.275-2.197 10.524-6.589 2.247-4.393 3.371-11.254 3.371-20.585v-9.91c0-7.014-.426-12.497-1.277-16.448ZM139.892 15.616a17.89 17.89 0 0 0-12.631-12.63C116.118 0 71.439 0 71.439 0s-44.68 0-55.822 2.986a17.892 17.892 0 0 0-12.631 12.63C0 26.756 0 50 0 50s0 23.245 2.986 34.385a17.892 17.892 0 0 0 12.631 12.63C26.76 100 71.44 100 71.44 100s44.679 0 55.822-2.986a17.89 17.89 0 0 0 12.631-12.629C142.877 73.245 142.877 50 142.877 50s0-23.244-2.985-34.385Z" fill="#000"/><path d="M57.151 71.429V28.572L94.271 50 57.15 71.429Z" fill="#fff"/></g><defs><clipPath id="a"><path fill="#fff" d="M0 0h448v100H0z"/></clipPath></defs></svg>